<?xml version="1.0" standalone="no"?>
<!DOCTYPE svg PUBLIC "-//W3C//DTD SVG 20010904//EN"
 "http://www.w3.org/TR/2001/REC-SVG-20010904/DTD/svg10.dtd">
<svg version="1.0" xmlns="http://www.w3.org/2000/svg"
 width="2133.000000pt" height="2133.000000pt" viewBox="0 0 2133.000000 2133.000000"
 preserveAspectRatio="xMidYMid meet">
<metadata>
Created by potrace 1.14, written by Peter Selinger 2001-2017
</metadata>
<g transform="translate(0.000000,2133.000000) scale(0.100000,-0.100000)"
fill="#000000" stroke="none">
<path d="M12815 21323 c-41 -10 -121 -48 -150 -71 -16 -13 -2855 -2848 -6308
-6300 -6096 -6095 -6279 -6279 -6315 -6351 -32 -65 -36 -83 -39 -161 -3 -135
28 -217 125 -322 141 -154 212 -262 278 -427 35 -87 59 -167 70 -236 3 -22 10
-60 14 -85 14 -74 5 -336 -15 -415 -9 -38 -19 -79 -21 -89 -8 -42 -39 -125
-74 -203 -63 -136 -133 -237 -264 -376 -98 -107 -139 -261 -103 -397 28 -109
19 -99 1031 -1111 534 -535 989 -983 1010 -996 123 -78 291 -85 416 -17 25 14
71 47 101 75 132 121 256 190 415 233 126 33 311 34 435 2 145 -38 299 -122
399 -218 54 -52 106 -112 120 -139 7 -13 16 -26 21 -29 15 -10 78 -148 102
-225 55 -177 51 -378 -11 -555 -8 -25 -19 -49 -24 -55 -4 -5 -8 -15 -8 -22 0
-31 -126 -212 -186 -268 -49 -45 -90 -127 -111 -220 -8 -37 -4 -125 8 -168 31
-118 9 -94 1032 -1117 534 -535 988 -983 1007 -995 128 -80 306 -85 435 -10
22 13 69 50 105 84 156 146 392 280 556 316 10 2 51 11 89 20 80 19 344 29
415 15 25 -4 63 -11 85 -14 214 -33 446 -152 640 -327 49 -44 110 -91 135
-104 118 -59 257 -59 374 -1 68 33 352 316 6351 6316 3454 3455 6286 6288
6293 6295 7 8 27 45 44 82 27 57 33 81 35 154 4 142 -28 216 -152 350 -162
176 -268 384 -321 630 -29 136 -26 409 8 534 5 22 12 48 14 57 2 10 6 26 8 36
12 51 72 187 118 266 60 105 103 163 209 277 48 52 93 128 105 179 4 14 8 62
10 108 4 89 -15 158 -61 232 -27 42 -1923 1940 -1979 1982 -74 53 -211 81
-311 63 -43 -8 -155 -56 -155 -66 0 -5 -4 -9 -10 -9 -5 0 -35 -24 -66 -52 -79
-74 -136 -114 -232 -160 -195 -94 -381 -113 -607 -64 -95 22 -217 80 -310 148
-232 172 -364 430 -365 716 -1 53 1 107 4 118 2 12 7 37 10 55 24 152 116 329
241 464 31 33 70 89 88 124 57 116 45 292 -27 401 -37 56 -1953 1966 -1999
1993 -62 37 -135 55 -217 55 -118 0 -202 -37 -307 -134 -189 -176 -410 -291
-653 -341 -93 -19 -336 -25 -430 -11 -168 24 -348 90 -500 181 -56 33 -149
106 -225 176 -99 91 -173 123 -290 126 -49 1 -99 0 -110 -2z"/>
</g>
</svg>
